<?xml version="1.0" standalone="no"?>
<!DOCTYPE svg PUBLIC "-//W3C//DTD SVG 20010904//EN"
 "http://www.w3.org/TR/2001/REC-SVG-20010904/DTD/svg10.dtd">
<svg version="1.0" xmlns="http://www.w3.org/2000/svg"
 width="850.000000pt" height="850.000000pt" viewBox="0 0 850.000000 850.000000"
 preserveAspectRatio="xMidYMid meet">
<metadata>
Created by potrace 1.14, written by Peter Selinger 2001-2017
</metadata>
<g transform="translate(0.000000,850.000000) scale(0.100000,-0.100000)"
fill="#000000" stroke="none">
<path d="M3140 5003 c-208 -574 -187 -512 -167 -493 9 8 51 113 95 233 43 120
82 218 87 218 5 0 23 -41 41 -92 18 -50 35 -93 36 -95 2 -2 64 57 137 130
l133 133 -83 218 c-46 120 -89 220 -95 222 -7 2 -81 -189 -184 -474z"/>
<path d="M250 5440 l165 -5 0 -1200 0 -1200 -162 -3 c-104 -1 -163 -6 -163
-13 0 -14 1308 -6 1369 8 39 10 73 40 322 289 l279 279 0 60 c-1 337 -265 582
-694 644 l-121 18 69 12 c156 27 328 120 428 230 145 160 176 369 84 556 -78
158 -252 268 -499 316 -90 17 -143 19 -670 17 -315 -1 -498 -5 -407 -8z m898
-10 c96 -16 166 -46 222 -97 109 -98 143 -206 144 -458 1 -255 -38 -392 -133
-476 -71 -63 -114 -72 -368 -77 l-223 -4 0 554 c0 305 3 558 7 561 10 11 281
8 351 -3z m178 -1148 c182 -49 283 -155 336 -350 29 -112 37 -377 14 -493 -34
-167 -121 -294 -241 -353 -97 -47 -171 -57 -418 -54 l-222 3 -3 625 c-1 344 0
631 3 639 9 22 436 9 531 -17z"/>
<path d="M4870 4230 l0 -1220 243 0 242 0 260 260 260 260 -198 0 -197 0 0
960 0 960 -305 0 -305 0 0 -1220z"/>
<path d="M6540 5210 l0 -240 320 0 319 0 3 -65 3 -65 305 305 305 305 -628 0
-627 0 0 -240z"/>
<path d="M7846 5441 c-3 -5 28 -17 69 -26 180 -40 333 -155 408 -306 37 -75
67 -191 85 -329 7 -46 10 44 11 303 l1 367 -284 0 c-158 0 -287 -4 -290 -9z"/>
<path d="M3197 4672 l-606 -607 -177 -475 c-97 -261 -185 -499 -195 -528 l-18
-52 327 2 326 3 43 140 c24 77 50 164 59 193 l15 52 449 0 449 0 46 -147 c26
-82 53 -169 61 -195 l16 -48 324 0 c178 0 324 2 324 4 0 6 -830 2259 -833
2262 -2 2 -276 -270 -610 -604z m372 -307 c84 -269 154 -498 157 -507 5 -17
-14 -18 -300 -18 -168 0 -306 4 -306 9 0 5 40 137 89 295 49 157 115 383 147
501 32 118 59 214 60 212 1 -1 70 -222 153 -492z"/>
<path d="M7413 5008 l-183 -183 -2 -895 -3 -895 -162 -3 c-98 -1 -163 -6 -163
-12 0 -6 187 -10 515 -10 328 0 515 4 515 10 0 6 -65 11 -162 12 l-163 3 -5
1078 -5 1077 -182 -182z"/>
<path d="M6507 3653 c-17 -249 -141 -456 -327 -546 -133 -65 -164 -70 -470
-74 -151 -3 -279 -9 -285 -14 -5 -5 206 -9 548 -9 l557 0 0 365 c0 201 -4 365
-9 365 -4 0 -11 -39 -14 -87z"/>
<path d="M1877 3352 c-163 -163 -297 -300 -297 -304 0 -11 140 31 209 63 146
67 254 169 321 301 34 68 79 222 68 233 -2 2 -138 -130 -301 -293z"/>
</g>
</svg>
