<?xml version="1.0" encoding="utf-8"?>
<!-- Generator: Adobe Illustrator 15.0.0, SVG Export Plug-In . SVG Version: 6.00 Build 0)  -->
<!DOCTYPE svg PUBLIC "-//W3C//DTD SVG 1.1//EN" "http://www.w3.org/Graphics/SVG/1.1/DTD/svg11.dtd">
<svg version="1.1" id="Layer_1" xmlns="http://www.w3.org/2000/svg" xmlns:xlink="http://www.w3.org/1999/xlink" x="0px" y="0px"
	 width="628.334px" height="197.667px" viewBox="0 0 628.334 197.667" enable-background="new 0 0 628.334 197.667"
	 xml:space="preserve">
<path fill="#27AAE2" d="M480.46,135.898c0,25.825-11.899,52.159-50.64,52.159h-28.044l-1.518,1.518h80.96
	c0.506,0,0.76-0.252,0.76-0.759v-52.918C481.979,135.391,480.46,135.391,480.46,135.898z M584.613,188.057h-22.534
	c-1.014,0-1.519-0.255-1.519-1.015V29.272l-27.854,27.854v129.916c0,0.76-0.506,1.015-1.519,1.015h-22.281
	c-0.506,0-0.506,1.518,0,1.518h75.706C585.119,189.575,585.119,188.057,584.613,188.057z M245.708,8.569L219.525,81l2.63-2.635
	l12.159-33.334l5.616,15.526l19.831-19.868L247.48,8.569C247.228,7.811,245.962,7.811,245.708,8.569z M620.316,10.058h-40.541
	l-2.107,2.107c29.767,3.766,41.635,25.192,41.635,51.823c0,0.506,1.519,0.506,1.519,0V10.817
	C620.821,10.565,620.821,10.058,620.316,10.058z M89.759,93.865c24.052,0,51.146-17.974,51.146-42.281
	c0-28.105-27.853-41.526-59.249-41.526H9.747c-0.759,0-0.759,1.518,0,1.518h22.282c1.014,0,1.519,0.507,1.519,1.014v174.453
	c0,0.76-0.505,1.015-1.519,1.015H9.747c-0.759,0-0.759,1.518,0,1.518h84.569c6.864,0,13.116-0.7,18.79-1.959l40.691-40.766
	c0.179-1.617,0.275-3.243,0.275-4.876C154.072,111.843,124.952,93.865,89.759,93.865z M61.147,12.59
	c0-0.507,0.507-1.014,1.772-1.014h14.685c25.828,0,36.462,11.141,36.462,41.019c0,31.144-8.865,40.511-27.853,40.511H61.147V12.59z
	 M87.228,188.057H62.92c-1.266,0-1.772-0.255-1.772-1.015V94.627h22.534c25.825,0,43.295,8.355,43.295,48.866
	C126.977,176.917,111.28,188.057,87.228,188.057z"/>
<path fill="#046A91" d="M133.196,182.61c20.516-9.09,28.362-26.337,29.478-39.884l-44.321,44.344
	C123.573,186.086,128.451,184.67,133.196,182.61z M574.59,10.31h-91.714v35.449h46.589v9.698L574.59,10.31z M192.974,112.411
	l-28.495,76.784h47.601l8.861-28.612h65.832l8.862,28.612h47.599l-61.119-165.97L192.974,112.411z M231.323,128.428
	c4.05-13.42,10.886-34.436,14.684-47.854c2.532-9.116,5.067-18.484,7.344-27.601l23.295,75.455H231.323z M404.989,10.31h-44.562
	v179.011h35.241l37.708-37.728h-28.388V10.31z"/>
</svg>
